<?xml version="1.0" encoding="UTF-8" standalone="no"?>
<!-- Created with Inkscape (http://www.inkscape.org/) -->

<svg
   width="148.21297mm"
   height="146.14752mm"
   viewBox="0 0 148.21297 146.14752"
   version="1.1"
   id="svg839"
   inkscape:version="1.1.2 (0a00cf5339, 2022-02-04)"
   sodipodi:docname="dessin-1.svg"
   xmlns:inkscape="http://www.inkscape.org/namespaces/inkscape"
   xmlns:sodipodi="http://sodipodi.sourceforge.net/DTD/sodipodi-0.dtd"
   xmlns="http://www.w3.org/2000/svg"
   xmlns:svg="http://www.w3.org/2000/svg">
  <sodipodi:namedview
     id="namedview841"
     pagecolor="#ffffff"
     bordercolor="#666666"
     borderopacity="1.0"
     inkscape:pageshadow="2"
     inkscape:pageopacity="0.0"
     inkscape:pagecheckerboard="0"
     inkscape:document-units="mm"
     showgrid="false"
     inkscape:zoom="0.7349537"
     inkscape:cx="82.998425"
     inkscape:cy="404.10709"
     inkscape:window-width="1920"
     inkscape:window-height="1012"
     inkscape:window-x="1600"
     inkscape:window-y="28"
     inkscape:window-maximized="1"
     inkscape:current-layer="layer1"
     fit-margin-top="0"
     fit-margin-left="0"
     fit-margin-right="0"
     fit-margin-bottom="0" />
  <defs
     id="defs836" />
  <g
     inkscape:label="Calque 1"
     inkscape:groupmode="layer"
     id="layer1"
     transform="translate(-28.531005,-41.359642)">
    <path
       d="m 28.531005,112.06123 v -0.20505 c 1.8587,-23.977862 10.54365,-41.962914 25.63151,-53.333383 14.882813,-11.575521 31.009167,-17.158229 48.577505,-17.158229 18.39515,-0.205052 35.55338,5.992812 50.85291,18.395156 15.50459,12.197292 23.15104,30.387396 23.15104,53.948536 v 1.4486 c 0,23.77281 -7.64645,41.5462 -23.15104,53.74349 -15.50458,12.40234 -32.66281,18.60682 -51.05797,18.60682 h -0.82682 C 83.723088,187.30212 67.18663,181.09764 51.893715,168.6953 36.594185,156.498 28.742675,137.68613 28.537615,112.05462 Z M 98.189182,79.610088 V 46.947276 h -4.960938 c -1.031875,1.243542 -1.858698,2.685521 -2.685521,3.929063 -0.826822,1.243541 -1.653645,2.480468 -2.480468,3.929062 -0.826823,1.243542 -1.858698,2.897188 -2.480469,4.134115 -0.826823,1.243541 -1.448594,2.480468 -2.070365,3.929062 -1.243541,2.070365 -2.275416,4.134115 -3.102239,5.992813 -1.031875,1.858698 -1.858698,3.72401 -2.480469,5.377656 1.243542,0.826823 2.685521,1.858698 4.339167,2.480469 1.858698,0.62177 3.72401,1.243541 5.582708,1.653645 2.070365,0.416719 3.929063,0.621771 5.582708,0.826823 1.858698,0.205052 3.512344,0.416719 4.755886,0.416719 z m 8.684948,-32.656197 v 32.451145 c 1.03188,0 2.27542,0.205052 3.51234,0 1.24355,0 2.68552,-0.205052 3.92907,-0.416718 2.27541,-0.416719 4.96093,-1.031875 7.0313,-1.653646 2.27542,-0.826823 4.33917,-1.858698 5.78776,-3.10224 -2.48047,-5.992812 -5.16599,-10.748698 -7.85813,-15.299531 -2.69213,-4.550833 -5.78776,-8.473281 -9.09505,-11.780573 v -0.205052 h -3.30729 z m -22.324219,1.858698 v -0.205052 c -1.448594,0.62177 -2.897188,1.653645 -4.550833,2.275416 -1.448594,0.621771 -3.307292,1.448594 -4.755886,2.275417 -2.897187,1.448594 -5.78776,3.102239 -8.684948,4.960937 -2.68552,1.858698 -5.377656,3.929063 -7.646459,5.992813 0.82682,0.826823 1.858699,1.653646 2.685522,2.275416 0.826823,0.621771 1.858698,1.448594 2.897187,2.275417 0.826823,0.416719 1.858698,1.031875 2.897188,1.858698 1.031875,0.621771 2.275417,1.448594 3.512344,2.275417 1.653645,-3.724011 3.307291,-7.646459 5.377656,-11.165417 2.070364,-3.72401 4.339166,-7.236354 6.614583,-10.338594 0.205052,-0.416718 0.416719,-0.826823 0.826823,-1.243541 0.205052,-0.205052 0.416719,-0.826823 0.826823,-1.243542 z m 63.248649,15.292916 v -0.205052 c -5.16599,-3.929062 -9.71683,-7.236354 -14.26104,-9.300104 -4.54422,-2.06375 -9.09506,-4.134115 -13.22917,-5.78776 3.30729,3.307291 6.20448,7.441406 8.06318,11.370468 2.07036,4.134115 4.13411,8.473282 5.78776,12.607396 0.82682,-0.416719 1.85869,-0.826823 3.10224,-1.653646 1.03187,-0.621771 2.48046,-1.243541 3.72401,-1.858698 1.24354,-0.826823 2.27541,-1.653645 3.51234,-2.480468 1.24354,-1.031875 2.48047,-1.858698 3.30729,-2.685521 z m -3.51235,46.097035 h 23.77282 c 0,-7.64646 -1.65365,-14.882816 -4.75589,-22.324222 -2.89719,-7.236355 -7.0313,-13.229167 -12.19729,-18.395157 v -0.205052 c -1.03188,1.653646 -2.48047,3.10224 -3.92906,4.134115 -1.65365,1.031875 -3.10224,1.858698 -4.75589,2.685521 -1.03187,0.621771 -2.07036,1.448593 -3.10224,1.858698 -1.03187,0.62177 -2.48047,1.031875 -3.51234,1.653645 0.82682,1.653646 1.65364,3.512344 2.48047,5.16599 0.62177,1.858698 1.65364,3.929062 2.07036,5.78776 1.24354,3.307292 2.07037,6.819636 2.89719,10.338592 0.62177,3.10224 1.03187,6.40953 1.03187,9.30011 z M 69.462046,79.610088 v -0.205052 c -1.653645,-0.826823 -3.512343,-1.448593 -4.960937,-2.275416 -1.448594,-1.031875 -2.897188,-2.070365 -4.134115,-2.897188 -1.243539,-0.621771 -2.480469,-1.448593 -3.512339,-2.275416 -1.03188,-0.826823 -1.8587,-1.653646 -2.68553,-2.480469 -5.37765,5.165989 -9.3001,10.95375 -11.78057,17.78 -2.68552,6.819635 -4.55083,14.472703 -5.37765,22.740933 h 25.426454 c 0,-5.78776 0.826823,-11.370465 2.275417,-16.953173 1.243541,-5.78776 3.102239,-10.126927 4.755885,-13.434219 z M 98.189182,109.99748 V 86.224672 c -1.653646,0.205052 -3.724011,0.205052 -5.582709,0 -2.070364,-0.205052 -4.134114,-0.826823 -5.992812,-1.448594 -1.653646,-0.416719 -3.72401,-0.826823 -5.377656,-1.448594 -1.858698,-0.416719 -3.724011,-1.243541 -5.16599,-2.070364 -1.243541,2.070364 -2.275416,4.550833 -3.102239,7.236354 -1.031875,2.480469 -1.653646,5.165989 -2.275417,7.646458 -0.416719,2.480469 -0.621771,5.165988 -0.826823,7.441408 -0.205052,2.27541 -0.416719,4.55083 -0.416719,6.40953 h 28.73375 z m 8.684948,-23.35609 v 23.35609 h 30.59245 c 0,-1.24354 0,-2.68552 -0.20505,-4.33916 -0.41672,-1.4486 -0.62178,-3.30729 -0.82683,-4.96094 -0.62177,-2.480469 -1.24354,-5.16599 -2.07036,-7.646458 -0.82682,-2.275417 -1.65365,-4.550834 -2.68552,-6.409532 -0.41672,-1.031875 -0.82683,-2.275416 -1.24354,-3.102239 -0.62178,-1.031875 -1.24355,-1.653646 -1.65365,-2.275417 -2.27542,1.653646 -5.37766,2.685521 -9.09505,3.512344 -3.51235,0.826823 -7.64646,1.653646 -11.37047,1.858698 h -1.44859 z M 62.430744,116.81712 H 37.004285 c 0,3.51234 0.62177,7.44141 1.65365,12.19729 1.03187,4.96094 3.10224,9.51177 5.37765,14.47271 1.03188,2.48047 2.27542,4.96094 3.51235,7.44141 1.44859,2.27541 3.10224,4.75588 4.75588,7.0313 1.24354,-0.82683 2.48047,-1.4486 3.51235,-2.07037 1.24354,-0.62177 2.68552,-1.44859 3.92906,-2.07036 1.448592,-0.62177 2.897186,-1.24354 4.550832,-2.07037 1.448594,-0.62177 3.307292,-1.44859 5.165989,-2.27541 -1.653645,-5.16599 -3.512343,-10.12693 -4.755885,-15.70964 -1.448594,-5.37765 -2.275417,-10.7487 -2.275417,-16.74151 z m 35.758438,24.18292 v -24.18292 h -28.73375 c 0,1.65364 0.205052,4.13411 0.621771,6.61458 0.205052,2.48047 0.826823,5.16599 1.243541,7.85813 0.826823,2.89718 1.448594,5.78776 2.275417,8.26823 0.826823,2.48047 1.653646,4.55083 2.480469,6.40953 3.72401,-1.4486 7.441406,-2.48047 9.921875,-3.10224 2.685521,-0.82682 5.165989,-1.4486 7.646458,-1.65365 h 2.275417 c 0.826823,-0.20505 1.653645,-0.20505 2.275416,-0.20505 z m 8.684948,-24.18292 v 23.97786 c 1.44859,0.20506 3.10224,0.41672 4.75589,0.62177 1.85869,0.20506 4.13411,0.62178 5.99281,1.03188 l 3.10224,0.62177 c 1.03187,0.41672 2.27541,0.62177 3.30729,0.82682 1.24354,0.41672 2.48047,0.62177 3.72401,1.03188 1.03187,0.41672 2.07036,0.62177 2.89719,1.03187 2.68552,-6.81963 4.33916,-12.40234 5.37765,-17.15823 1.03188,-4.55083 1.4486,-8.47328 1.4486,-11.78057 v -0.20505 h -30.59245 z m 61.1849,0.20505 v -0.20505 h -23.77282 v 1.24354 c -0.20505,3.92906 -0.82682,8.47328 -1.65364,13.22917 -0.82683,4.55083 -2.68552,9.92187 -5.16599,16.53646 3.30729,1.65364 6.40953,3.30729 8.89,4.96093 2.48047,1.65365 4.75588,3.51235 6.40953,5.16599 3.51234,-3.51234 6.61458,-8.26823 9.3001,-14.47271 2.68552,-5.99281 4.55084,-12.19729 5.58271,-18.81187 0.20505,-1.24354 0.20505,-2.48047 0.41672,-3.72401 v -3.92906 z m -69.869848,62.83854 v -32.24609 c -5.16599,0.82682 -9.511771,1.8587 -12.819063,2.68552 -3.307291,0.82682 -5.78776,1.65365 -7.441406,2.48047 1.243542,3.10224 2.480469,5.78776 3.72401,8.26823 1.243542,2.27541 2.685521,4.75588 3.929063,6.81963 0.416719,0.82683 1.243542,1.65365 1.858698,2.68552 0.621771,0.82683 1.031875,1.8587 1.653646,2.68552 0.621771,1.03188 1.243541,2.27542 1.858698,3.51235 0.826823,1.03187 1.448593,2.27541 2.275416,3.10224 h 4.960938 z m 8.684948,0 h 4.75589 c 1.85869,-1.44859 3.72401,-3.51234 5.16599,-5.78776 1.65364,-2.27541 3.51234,-4.96094 4.75588,-7.23635 1.44859,-2.68552 2.89719,-5.16599 4.13412,-7.64646 1.23692,-2.48047 2.27541,-4.75589 3.10223,-6.40953 -2.27541,-0.82682 -5.37765,-1.65365 -8.47328,-2.48047 -3.09562,-0.82682 -7.4414,-1.65365 -13.43422,-2.48047 v 32.04104 z m 40.92443,-16.94656 v -0.20505 c -0.41672,-0.62177 -1.24354,-1.4486 -1.8587,-2.07037 -0.61516,-0.62177 -1.65365,-1.44859 -2.68552,-2.07036 -0.82682,-0.62177 -1.8587,-1.24354 -3.10224,-1.8587 -1.24354,-0.61516 -2.89719,-1.44859 -4.33917,-2.27542 -0.82682,1.65365 -2.27541,4.55084 -4.33916,8.47329 -1.8587,3.92906 -5.16599,8.68494 -9.30011,13.85093 5.16599,-0.82682 9.71682,-2.68552 13.85094,-5.16599 4.55083,-2.27541 8.47328,-5.37765 11.78057,-8.68494 z m -76.894534,-6.61458 v -0.20506 c -1.448594,0.82683 -3.724011,1.8587 -5.992813,2.89719 -2.480469,1.03188 -5.165988,2.27542 -7.646458,3.92906 1.44859,1.24355 2.89719,2.48047 4.134114,3.3073 1.243542,1.03187 2.685521,1.85869 3.929063,2.68552 2.275417,1.44859 4.960937,2.89718 7.646458,4.13411 2.685521,1.23693 5.992813,2.48047 10.126927,3.72401 -1.448594,-1.65364 -2.480469,-3.72401 -3.512344,-5.37765 -1.031875,-1.65365 -2.275416,-3.3073 -3.307291,-4.96094 -1.031875,-1.65365 -1.858698,-3.51235 -2.685521,-5.16599 -1.031875,-1.65365 -1.858698,-3.30729 -2.685521,-4.96094 z"
       id="path4"
       style="stroke-width:6.61458" />
  </g>
</svg>
